<svg xmlns="http://www.w3.org/2000/svg" viewBox="0 0 512 512" id="keyboard">
  <g>
    <g>
      <path fill="#00acea" d="M481.01,257.79V423.73a30,30,0,0,1-30,30H60.99a30,30,0,0,1-30-30V257.79a30,30,0,0,1,30-30H451.01A30,30,0,0,1,481.01,257.79ZM452.74,412.55v-30H419.26v30Zm0-55v-30H419.26v30Zm0-55v-30H419.26v30Zm-60,110v-30H359.26v30Zm0-55v-30H359.26v30Zm0-55v-30H359.26v30Zm-60,110v-30H179.26v30Zm0-55v-30H299.26v30Zm0-55v-30H299.26v30Zm-60,55v-30H239.26v30Zm0-55v-30H239.26v30Zm-60,55v-30H179.26v30Zm0-55v-30H179.26v30Zm-60,110v-30H119.26v30Zm0-55v-30H119.26v30Zm0-55v-30H119.26v30Zm-60,110v-30H59.26v30Zm0-55v-30H59.26v30Zm0-55v-30H59.26v30Z"></path>
      <rect width="33.48" height="30" x="419.26" y="382.55" fill="#00efd1"></rect>
      <rect width="33.48" height="30" x="419.26" y="327.55" fill="#00efd1"></rect>
      <rect width="33.48" height="30" x="419.26" y="272.55" fill="#00efd1"></rect>
      <rect width="33.48" height="30" x="359.26" y="382.55" fill="#00efd1"></rect>
      <rect width="33.48" height="30" x="359.26" y="327.55" fill="#00efd1"></rect>
      <rect width="33.48" height="30" x="359.26" y="272.55" fill="#00efd1"></rect>
      <rect width="153.48" height="30" x="179.26" y="382.55" fill="#fedb41"></rect>
      <rect width="33.48" height="30" x="299.26" y="327.55" fill="#00efd1"></rect>
      <rect width="33.48" height="30" x="299.26" y="272.55" fill="#00efd1"></rect>
      <path fill="#fedb41" d="M311.25,215.86v11.93H200.75V215.86a30,30,0,0,1,30-30h50.5A30,30,0,0,1,311.25,215.86Z"></path>
      <rect width="33.48" height="30" x="239.26" y="327.55" fill="#00efd1"></rect>
      <rect width="33.48" height="30" x="239.26" y="272.55" fill="#00efd1"></rect>
      <rect width="33.48" height="30" x="179.26" y="327.55" fill="#00efd1"></rect>
      <rect width="33.48" height="30" x="179.26" y="272.55" fill="#00efd1"></rect>
      <rect width="33.48" height="30" x="119.26" y="382.55" fill="#00efd1"></rect>
      <rect width="33.48" height="30" x="119.26" y="327.55" fill="#00efd1"></rect>
      <rect width="33.48" height="30" x="119.26" y="272.55" fill="#00efd1"></rect>
      <rect width="33.48" height="30" x="59.26" y="382.55" fill="#00efd1"></rect>
      <rect width="33.48" height="30" x="59.26" y="327.55" fill="#00efd1"></rect>
      <rect width="33.48" height="30" x="59.26" y="272.55" fill="#00efd1"></rect>
    </g>
    <g>
      <path fill="#083863" d="M60.99,462H451.01A38.267,38.267,0,0,0,489,423.73V257.79A37.856,37.856,0,0,0,451.01,220H319v-4.14A37.711,37.711,0,0,0,281.25,178H262V142.32C262,114.739,239.741,92,212.16,92H184.33A33.941,33.941,0,0,1,150.3,58.12a8,8,0,0,0-16-.037A49.99,49.99,0,0,0,184.33,108h27.83c18.759,0,33.84,15.561,33.84,34.32V178H230.75A37.711,37.711,0,0,0,193,215.86V220H60.99A37.856,37.856,0,0,0,23,257.79V423.73A38.267,38.267,0,0,0,60.99,462ZM209,215.86A21.693,21.693,0,0,1,230.75,194h50.5A21.693,21.693,0,0,1,303,215.86V220H209ZM473,424a22,22,0,0,1-22,22H61a22,22,0,0,1-22-22V258a22,22,0,0,1,22-22H451a22,22,0,0,1,22,22Z"></path>
      <path fill="#083863" d="M280 273a8 8 0 0 0-8-8H239a8 8 0 0 0-8 8v30a8 8 0 0 0 8 8h33a8 8 0 0 0 8-8zm-33 8h18v14H247zM220 273a8 8 0 0 0-8-8H179a8 8 0 0 0-8 8v30a8 8 0 0 0 8 8h33a8 8 0 0 0 8-8zm-33 8h18v14H187zM160 273a8 8 0 0 0-8-8H119a8 8 0 0 0-8 8v30a8 8 0 0 0 8 8h33a8 8 0 0 0 8-8zm-33 8h18v14H127zM100 273a8 8 0 0 0-8-8H59a8 8 0 0 0-8 8v30a8 8 0 0 0 8 8H92a8 8 0 0 0 8-8zm-33 8H85v14H67zM400 273a8 8 0 0 0-8-8H359a8 8 0 0 0-8 8v30a8 8 0 0 0 8 8h33a8 8 0 0 0 8-8zm-33 8h18v14H367zM340 273a8 8 0 0 0-8-8H299a8 8 0 0 0-8 8v30a8 8 0 0 0 8 8h33a8 8 0 0 0 8-8zm-33 8h18v14H307zM460 273a8 8 0 0 0-8-8H419a8 8 0 0 0-8 8v30a8 8 0 0 0 8 8h33a8 8 0 0 0 8-8zm-33 8h18v14H427zM280 328a8 8 0 0 0-8-8H239a8 8 0 0 0-8 8v30a8 8 0 0 0 8 8h33a8 8 0 0 0 8-8zm-33 8h18v14H247zM220 328a8 8 0 0 0-8-8H179a8 8 0 0 0-8 8v30a8 8 0 0 0 8 8h33a8 8 0 0 0 8-8zm-33 8h18v14H187zM160 328a8 8 0 0 0-8-8H119a8 8 0 0 0-8 8v30a8 8 0 0 0 8 8h33a8 8 0 0 0 8-8zm-33 8h18v14H127zM100 328a8 8 0 0 0-8-8H59a8 8 0 0 0-8 8v30a8 8 0 0 0 8 8H92a8 8 0 0 0 8-8zm-33 8H85v14H67zM400 328a8 8 0 0 0-8-8H359a8 8 0 0 0-8 8v30a8 8 0 0 0 8 8h33a8 8 0 0 0 8-8zm-33 8h18v14H367zM340 328a8 8 0 0 0-8-8H299a8 8 0 0 0-8 8v30a8 8 0 0 0 8 8h33a8 8 0 0 0 8-8zm-33 8h18v14H307zM460 328a8 8 0 0 0-8-8H419a8 8 0 0 0-8 8v30a8 8 0 0 0 8 8h33a8 8 0 0 0 8-8zm-33 8h18v14H427zM160 383a8 8 0 0 0-8-8H119a8 8 0 0 0-8 8v30a8 8 0 0 0 8 8h33a8 8 0 0 0 8-8zm-33 8h18v14H127zM100 383a8 8 0 0 0-8-8H59a8 8 0 0 0-8 8v30a8 8 0 0 0 8 8H92a8 8 0 0 0 8-8zm-33 8H85v14H67zM400 383a8 8 0 0 0-8-8H359a8 8 0 0 0-8 8v30a8 8 0 0 0 8 8h33a8 8 0 0 0 8-8zm-33 8h18v14H367zM340 383a8 8 0 0 0-8-8H179a8 8 0 0 0-8 8v30a8 8 0 0 0 8 8H332a8 8 0 0 0 8-8zm-153 8H325v14H187zM460 383a8 8 0 0 0-8-8H419a8 8 0 0 0-8 8v30a8 8 0 0 0 8 8h33a8 8 0 0 0 8-8zm-33 8h18v14H427z"></path>
    </g>
  </g>
</svg>
